PathFileType	4	(X/Y/Z)	results/motion.trc
DataRate	CameraRate	NumFrames	NumMarkers	Units	OrigDataRate	OrigDataStartFrame	OrigNumFrames
13	13	7	20	mm	13	1	88
Frame#	Time	NUI_SKELETON_POSITION_HIP_CENTER	NUI_SKELETON_POSITION_HIP_RIGHT	NUI_SKELETON_POSITION_HIP_LEFT	NUI_SKELETON_POSITION_KNEE_RIGHT	NUI_SKELETON_POSITION_KNEE_LEFT	NUI_SKELETON_POSITION_ANKLE_RIGHT	NUI_SKELETON_POSITION_ANKLE_LEFT	NUI_SKELETON_POSITION_FOOT_RIGHT	NUI_SKELETON_POSITION_FOOT_LEFT	NUI_SKELETON_POSITION_SPINE	NUI_SKELETON_POSITION_SHOULDER_RIGHT	NUI_SKELETON_POSITION_SHOULDER_LEFT	NUI_SKELETON_POSITION_ELBOW_RIGHT	NUI_SKELETON_POSITION_ELBOW_LEFT	NUI_SKELETON_POSITION_WRIST_RIGHT	NUI_SKELETON_POSITION_WRIST_LEFT	NUI_SKELETON_POSITION_HAND_RIGHT	NUI_SKELETON_POSITION_HAND_LEFT	NUI_SKELETON_POSITION_SHOULDER_CENTER	NUI_SKELETON_POSITION_HEAD
X1	Y1	Z1	X2	Y2	Z2	X3	Y3	Z3	X4	Y4	Z4	X5	Y5	Z5	X6	Y6	Z6	X7	Y7	Z7	X8	Y8	Z8	X9	Y9	Z9	X10	Y10	Z10	X11	Y11	Z11	X12	Y12	Z12	X13	Y13	Z13	X14	Y14	Z14	X15	Y15	Z15	X16	Y16	Z16	X17	Y17	Z17	X18	Y18	Z18	X19	Y19	Z19	X20	Y20	Z20	
1	0.094000	0.000000	745.977044	0.000000	78.486890	664.856553	-12.970686	-82.010373	667.201638	-6.651402	126.786172	175.842464	33.391476	-145.923078	188.119531	46.670675	144.727319	-192.097008	80.109835	-192.375422	-165.235043	98.167896	178.042322	-256.581783	40.054560	-241.125435	-246.207118	37.742853	2.716050	816.954672	58.647156	184.371918	1081.370831	28.415442	-171.985760	1087.012529	35.955667	396.798164	854.909539	-28.371572	-431.365430	911.570370	18.574715	633.548975	830.239356	-152.010679	-678.509295	862.176061	-66.759348	687.425256	833.019018	-152.395487	-758.144975	858.527720	-99.017143	9.937108	1212.162733	42.254686	-6.713524	1389.045477	32.558203	
2	0.196000	-1.273647	745.797813	-0.283241	77.130467	664.696038	-13.223171	-83.178878	667.118311	-7.011652	126.323462	175.873041	33.053637	-146.376818	188.144654	46.457052	144.725502	-192.097902	80.108166	-192.402899	-165.229738	98.105669	177.866459	-256.492615	39.807558	-241.226166	-246.153653	37.768841	1.346424	816.779196	58.388233	183.092803	1081.178188	28.460979	-172.653735	1087.048292	35.836220	396.178454	855.606198	-28.376579	-434.049487	909.523726	18.381119	633.080721	832.283735	-152.683258	-681.748688	858.468235	-67.447186	686.269999	835.814476	-152.697325	-758.457184	856.784642	-98.980904	8.572280	1212.179422	42.187691	-7.415608	1388.838768	33.066988	
3	0.293000	-2.877325	745.597184	-0.626802	75.506657	664.526463	-13.510704	-84.714338	666.991532	-7.486582	125.605971	175.898179	32.570839	-147.015363	188.194260	46.136141	144.717246	-192.099094	80.104828	-192.440167	-165.245593	98.039865	177.701265	-256.410539	39.556026	-241.456226	-246.041417	37.842751	-0.465199	816.565871	58.069706	181.368798	1081.068993	28.615952	-174.199417	1087.082028	35.455942	394.658118	856.744051	-28.378010	-437.053800	907.399893	18.141985	631.588101	834.671080	-153.319836	-685.267568	854.401350	-68.116903	680.420637	841.013074	-152.617931	-758.990049	854.635179	-98.738432	6.714642	1212.143421	42.129755	-8.497521	1388.579369	33.474684	
4	0.343000	-5.570471	745.335460	-1.107454	72.830558	664.323330	-13.831854	-87.342188	666.776061	-8.240223	124.305427	175.903648	31.688929	-148.033053	188.132524	45.682907	144.668728	-192.091286	80.061436	-192.482457	-165.271044	97.975254	177.541047	-256.323934	39.283991	-241.641477	-245.945394	37.890911	-3.539026	816.276431	57.618380	178.086817	1081.162810	29.054642	-177.036852	1087.153435	34.805536	391.786605	858.344853	-28.192759	-441.435277	905.422568	17.682314	628.741145	837.602854	-153.649092	-689.733326	849.317312	-68.982601	676.323175	845.517397	-152.487755	-762.883902	850.914478	-99.653721	3.644526	1212.050438	42.028189	-10.678113	1388.451815	33.924818	
5	0.394000	-9.505421	744.959831	-1.671553	68.928093	663.996696	-14.182329	-91.082439	666.498542	-9.194851	122.659057	175.926641	30.582905	-149.385601	188.062578	45.120955	144.594103	-192.072809	79.987526	-192.530602	-165.303946	97.911596	177.381754	-256.235838	38.961172	-241.809607	-245.861650	37.935257	-8.001640	815.862536	57.129383	173.560858	1081.214190	29.611349	-181.023926	1087.308407	34.032822	387.628943	860.141754	-27.831316	-447.524309	903.874397	16.823292	624.863267	840.508938	-153.524399	-695.532203	846.458435	-71.192503	671.009064	849.681616	-152.125359	-766.787410	849.048734	-102.168322	-1.233622	1212.062359	42.201996	-13.690010	1388.532877	34.295082	
6	0.545000	-15.331849	744.742572	-2.230883	63.512743	663.806200	-14.446259	-96.916765	666.237235	-10.299683	120.112091	176.059932	28.795958	-151.361361	187.935501	44.583797	144.499600	-192.045450	79.879999	-192.599207	-165.345490	97.846985	177.236855	-256.139696	38.597345	-241.972327	-245.779216	37.970781	-14.531910	815.579057	56.653976	166.736811	1081.535935	30.798912	-189.061910	1087.339759	33.172846	379.326671	861.799598	-26.126623	-456.809402	903.280497	14.689445	616.824865	842.998385	-152.019501	-704.166889	845.723987	-76.761484	667.424679	851.827383	-151.587725	-775.255084	850.138485	-109.594107	-8.282736	1212.025523	42.390585	-20.000383	1388.847351	34.231424	
7	0.612000	-22.606045	745.205641	-2.720118	56.712449	664.323330	-14.529228	-103.841320	666.534543	-11.434078	117.034823	176.303729	26.525736	-153.846845	187.809736	44.049263	144.387156	-192.017555	79.734325	-192.674488	-165.410340	97.804785	177.100956	-256.036878	38.193464	-242.131144	-245.701373	38.008690	-22.706211	815.847635	56.232214	158.268780	1082.041264	32.128096	-198.002681	1087.402344	32.091141	370.508701	863.329053	-24.340391	-464.384407	902.662933	13.878584	608.124971	843.717217	-149.723291	-711.164117	846.328139	-81.891537	657.503605	852.481782	-148.084879	-784.753203	852.365851	-118.172646	-18.239126	1211.818576	42.547703	-27.203351	1388.778090	34.128904	
